# xmcd
#
# Track frame offsets:
#	182
#	20382
#	40267
#	54227
#	69482
#	86782
#	108632
#	122182
#	138112
#	170100
#	190782
#	207897
#	229437
#	244642
#	269017
#	287617
#	306232
#	318257
#
# Disc length: 4470 seconds
#
# Revision: 1
# Processed by: cddbd v1.5PL3 Copyright (c) Steve Scherf et al.
# Submitted via: audiograbber 1.82.02
#
DISCID=09117412
DTITLE=Marianne Rosenberg - Ich Hab`auf Liebe Gesetzt 
DYEAR=1980
DGENRE=Ballad
TTITLE0=Wo ist jane 
TTITLE1=Herz aus Glas
TTITLE2=Ich werd`da sein,wqenn es Sturm gibt
TTITLE3=Ruf an
TTITLE4=Ich hab´auf Liebe gestzt
TTITLE5=Nur Sieger steh`n im Licht
TTITLE6=Nein,weinen werd`ich nicht
TTITLE7=Verzeih,ich war zu lang allein
TTITLE8=Mach`mir den Abschied nicht so schwer
TTITLE9=Die Liebe und ich
TTITLE10=Wir Lieben uns nicht mehr
TTITLE11=Dort wo die Nacht brennt
TTITLE12=Einmal stellst du keine Fragen mehr
TTITLE13=Ich schaff`s ganz gut ohne dich
TTITLE14=Es ist besser wenn ich geh`
TTITLE15=Du bist mehr als ein Freund 
TTITLE16=Das gibst du mir
TTITLE17=Mauern aus schweigen
EXTD=
EXTT0=
EXTT1=
EXTT2=
EXTT3=
EXTT4=
EXTT5=
EXTT6=
EXTT7=
EXTT8=
EXTT9=
EXTT10=
EXTT11=
EXTT12=
EXTT13=
EXTT14=
EXTT15=
EXTT16=
EXTT17=
PLAYORDER=
